<svg width="1440" height="1024" viewBox="0 0 1440 1024" fill="none" xmlns="http://www.w3.org/2000/svg">
<g clip-path="url(#clip0_7_3)">
<rect width="1440" height="1024" fill="white"/>
<line x1="7.5" x2="7.5" y2="1024" stroke="black" stroke-width="15"/>
<line y1="7.5" x2="1440" y2="7.5" stroke="black" stroke-width="15"/>
<line x1="562" y1="1017.5" x2="-1.30854e-09" y2="1017.5" stroke="black" stroke-width="15"/>
<line x1="1440" y1="1017.5" x2="878" y2="1017.5" stroke="black" stroke-width="15"/>
<line x1="1432.5" x2="1432.5" y2="1024" stroke="black" stroke-width="15"/>
<line x1="563.5" y1="1024" x2="563.5" y2="936" stroke="black" stroke-width="7"/>
<line x1="874.5" y1="1031" x2="874.5" y2="936" stroke="black" stroke-width="7"/>
<line x1="1423" y1="760" x2="1423" y2="891" stroke="black" stroke-width="4"/>
<line x1="1421" y1="762" x2="1347" y2="762" stroke="black" stroke-width="4"/>
<line x1="1345" y1="886" x2="1345" y2="760" stroke="black" stroke-width="4"/>
<line x1="69" y1="889" x2="69" y2="760" stroke="black" stroke-width="4"/>
<line x1="71" y1="762" x2="15" y2="762" stroke="black" stroke-width="4"/>
<rect x="17" y="254" width="244" height="504" fill="#D9D9D9" stroke="black" stroke-width="4"/>
<rect x="598" y="258" width="244" height="504" fill="#D9D9D9" stroke="black" stroke-width="4"/>
<rect x="1179" y="465" width="244" height="293" fill="#D9D9D9" stroke="black" stroke-width="4"/>
<line x1="265" y1="892" x2="265" y2="1010" stroke="black" stroke-width="4"/>
<line x1="263" y1="890" x2="436" y2="890" stroke="black" stroke-width="4"/>
<line x1="482" y1="890" x2="513" y2="890" stroke="black" stroke-width="4"/>
<line x1="511" y1="1016" x2="511" y2="892" stroke="black" stroke-width="4"/>
<path d="M337.114 962V944.545H343.011C344.375 944.545 345.494 944.778 346.369 945.244C347.244 945.705 347.892 946.338 348.312 947.145C348.733 947.952 348.943 948.869 348.943 949.898C348.943 950.926 348.733 951.838 348.312 952.634C347.892 953.429 347.247 954.054 346.378 954.509C345.509 954.957 344.398 955.182 343.045 955.182H338.273V953.273H342.977C343.909 953.273 344.659 953.136 345.227 952.864C345.801 952.591 346.216 952.205 346.472 951.705C346.733 951.199 346.864 950.597 346.864 949.898C346.864 949.199 346.733 948.588 346.472 948.065C346.21 947.543 345.793 947.139 345.219 946.855C344.645 946.565 343.886 946.42 342.943 946.42H339.227V962H337.114ZM345.33 954.159L349.625 962H347.17L342.943 954.159H345.33ZM367.192 953.273C367.192 955.114 366.86 956.705 366.195 958.045C365.531 959.386 364.619 960.42 363.46 961.148C362.3 961.875 360.977 962.239 359.488 962.239C357.999 962.239 356.675 961.875 355.516 961.148C354.357 960.42 353.445 959.386 352.781 958.045C352.116 956.705 351.783 955.114 351.783 953.273C351.783 951.432 352.116 949.841 352.781 948.5C353.445 947.159 354.357 946.125 355.516 945.398C356.675 944.67 357.999 944.307 359.488 944.307C360.977 944.307 362.3 944.67 363.46 945.398C364.619 946.125 365.531 947.159 366.195 948.5C366.86 949.841 367.192 951.432 367.192 953.273ZM365.147 953.273C365.147 951.761 364.894 950.486 364.388 949.446C363.888 948.406 363.21 947.619 362.352 947.085C361.499 946.551 360.545 946.284 359.488 946.284C358.431 946.284 357.474 946.551 356.616 947.085C355.763 947.619 355.085 948.406 354.579 949.446C354.079 950.486 353.829 951.761 353.829 953.273C353.829 954.784 354.079 956.06 354.579 957.099C355.085 958.139 355.763 958.926 356.616 959.46C357.474 959.994 358.431 960.261 359.488 960.261C360.545 960.261 361.499 959.994 362.352 959.46C363.21 958.926 363.888 958.139 364.388 957.099C364.894 956.06 365.147 954.784 365.147 953.273ZM385.474 953.273C385.474 955.114 385.141 956.705 384.477 958.045C383.812 959.386 382.9 960.42 381.741 961.148C380.582 961.875 379.258 962.239 377.769 962.239C376.281 962.239 374.957 961.875 373.798 961.148C372.638 960.42 371.727 959.386 371.062 958.045C370.397 956.705 370.065 955.114 370.065 953.273C370.065 951.432 370.397 949.841 371.062 948.5C371.727 947.159 372.638 946.125 373.798 945.398C374.957 944.67 376.281 944.307 377.769 944.307C379.258 944.307 380.582 944.67 381.741 945.398C382.9 946.125 383.812 947.159 384.477 948.5C385.141 949.841 385.474 951.432 385.474 953.273ZM383.428 953.273C383.428 951.761 383.175 950.486 382.67 949.446C382.17 948.406 381.491 947.619 380.633 947.085C379.781 946.551 378.826 946.284 377.769 946.284C376.712 946.284 375.755 946.551 374.897 947.085C374.045 947.619 373.366 948.406 372.86 949.446C372.36 950.486 372.11 951.761 372.11 953.273C372.11 954.784 372.36 956.06 372.86 957.099C373.366 958.139 374.045 958.926 374.897 959.46C375.755 959.994 376.712 960.261 377.769 960.261C378.826 960.261 379.781 959.994 380.633 959.46C381.491 958.926 382.17 958.139 382.67 957.099C383.175 956.06 383.428 954.784 383.428 953.273ZM389.028 944.545H391.55L397.482 959.034H397.687L403.619 944.545H406.141V962H404.164V948.739H403.994L398.539 962H396.63L391.175 948.739H391.005V962H389.028V944.545ZM422.959 944.545V962H420.845V946.761H420.743L416.482 949.591V947.443L420.845 944.545H422.959ZM427.57 958.42V956.682L435.24 944.545H436.501V947.239H435.649L429.854 956.409V956.545H440.183V958.42H427.57ZM435.786 962V957.892V957.082V944.545H437.797V962H435.786Z" fill="black"/>
<line x1="17" y1="892" x2="17" y2="1010" stroke="black" stroke-width="4"/>
<line x1="15" y1="890" x2="154" y2="890" stroke="black" stroke-width="4"/>
<line x1="200" y1="890" x2="263" y2="890" stroke="black" stroke-width="4"/>
<line x1="261" y1="1016" x2="261" y2="892" stroke="black" stroke-width="4"/>
<path d="M78.1136 962V944.545H84.0114C85.375 944.545 86.4943 944.778 87.3693 945.244C88.2443 945.705 88.892 946.338 89.3125 947.145C89.733 947.952 89.9432 948.869 89.9432 949.898C89.9432 950.926 89.733 951.838 89.3125 952.634C88.892 953.429 88.2472 954.054 87.3778 954.509C86.5085 954.957 85.3977 955.182 84.0455 955.182H79.2727V953.273H83.9773C84.9091 953.273 85.6591 953.136 86.2273 952.864C86.8011 952.591 87.2159 952.205 87.4716 951.705C87.733 951.199 87.8636 950.597 87.8636 949.898C87.8636 949.199 87.733 948.588 87.4716 948.065C87.2102 947.543 86.7926 947.139 86.2188 946.855C85.6449 946.565 84.8864 946.42 83.9432 946.42H80.2273V962H78.1136ZM86.3295 954.159L90.625 962H88.1705L83.9432 954.159H86.3295ZM108.192 953.273C108.192 955.114 107.86 956.705 107.195 958.045C106.531 959.386 105.619 960.42 104.46 961.148C103.3 961.875 101.977 962.239 100.488 962.239C98.9993 962.239 97.6754 961.875 96.5163 961.148C95.3572 960.42 94.4453 959.386 93.7805 958.045C93.1158 956.705 92.7834 955.114 92.7834 953.273C92.7834 951.432 93.1158 949.841 93.7805 948.5C94.4453 947.159 95.3572 946.125 96.5163 945.398C97.6754 944.67 98.9993 944.307 100.488 944.307C101.977 944.307 103.3 944.67 104.46 945.398C105.619 946.125 106.531 947.159 107.195 948.5C107.86 949.841 108.192 951.432 108.192 953.273ZM106.147 953.273C106.147 951.761 105.894 950.486 105.388 949.446C104.888 948.406 104.21 947.619 103.352 947.085C102.499 946.551 101.545 946.284 100.488 946.284C99.4311 946.284 98.4737 946.551 97.6158 947.085C96.7635 947.619 96.0845 948.406 95.5788 949.446C95.0788 950.486 94.8288 951.761 94.8288 953.273C94.8288 954.784 95.0788 956.06 95.5788 957.099C96.0845 958.139 96.7635 958.926 97.6158 959.46C98.4737 959.994 99.4311 960.261 100.488 960.261C101.545 960.261 102.499 959.994 103.352 959.46C104.21 958.926 104.888 958.139 105.388 957.099C105.894 956.06 106.147 954.784 106.147 953.273ZM126.474 953.273C126.474 955.114 126.141 956.705 125.477 958.045C124.812 959.386 123.9 960.42 122.741 961.148C121.582 961.875 120.258 962.239 118.769 962.239C117.281 962.239 115.957 961.875 114.798 961.148C113.638 960.42 112.727 959.386 112.062 958.045C111.397 956.705 111.065 955.114 111.065 953.273C111.065 951.432 111.397 949.841 112.062 948.5C112.727 947.159 113.638 946.125 114.798 945.398C115.957 944.67 117.281 944.307 118.769 944.307C120.258 944.307 121.582 944.67 122.741 945.398C123.9 946.125 124.812 947.159 125.477 948.5C126.141 949.841 126.474 951.432 126.474 953.273ZM124.428 953.273C124.428 951.761 124.175 950.486 123.67 949.446C123.17 948.406 122.491 947.619 121.633 947.085C120.781 946.551 119.826 946.284 118.769 946.284C117.712 946.284 116.755 946.551 115.897 947.085C115.045 947.619 114.366 948.406 113.86 949.446C113.36 950.486 113.11 951.761 113.11 953.273C113.11 954.784 113.36 956.06 113.86 957.099C114.366 958.139 115.045 958.926 115.897 959.46C116.755 959.994 117.712 960.261 118.769 960.261C119.826 960.261 120.781 959.994 121.633 959.46C122.491 958.926 123.17 958.139 123.67 957.099C124.175 956.06 124.428 954.784 124.428 953.273ZM130.028 944.545H132.55L138.482 959.034H138.687L144.619 944.545H147.141V962H145.164V948.739H144.994L139.539 962H137.63L132.175 948.739H132.005V962H130.028V944.545ZM163.959 944.545V962H161.845V946.761H161.743L157.482 949.591V947.443L161.845 944.545H163.959ZM174.876 962.239C173.751 962.239 172.749 962.045 171.868 961.659C170.993 961.273 170.297 960.736 169.78 960.048C169.268 959.355 168.99 958.551 168.945 957.636H171.092C171.138 958.199 171.331 958.685 171.672 959.094C172.013 959.497 172.459 959.81 173.01 960.031C173.561 960.253 174.172 960.364 174.842 960.364C175.592 960.364 176.257 960.233 176.837 959.972C177.416 959.71 177.871 959.347 178.2 958.881C178.53 958.415 178.695 957.875 178.695 957.261C178.695 956.619 178.536 956.054 178.217 955.565C177.899 955.071 177.433 954.685 176.82 954.406C176.206 954.128 175.456 953.989 174.57 953.989H173.172V952.114H174.57C175.263 952.114 175.871 951.989 176.393 951.739C176.922 951.489 177.334 951.136 177.629 950.682C177.93 950.227 178.081 949.693 178.081 949.08C178.081 948.489 177.95 947.974 177.689 947.537C177.428 947.099 177.058 946.759 176.581 946.514C176.109 946.27 175.553 946.148 174.911 946.148C174.308 946.148 173.74 946.259 173.206 946.48C172.678 946.696 172.246 947.011 171.911 947.426C171.575 947.835 171.393 948.33 171.365 948.909H169.32C169.354 947.994 169.629 947.193 170.146 946.506C170.663 945.812 171.339 945.273 172.175 944.886C173.016 944.5 173.939 944.307 174.945 944.307C176.024 944.307 176.95 944.526 177.723 944.963C178.496 945.395 179.089 945.966 179.504 946.676C179.919 947.386 180.126 948.153 180.126 948.977C180.126 949.96 179.868 950.798 179.351 951.491C178.839 952.185 178.143 952.665 177.263 952.932V953.068C178.365 953.25 179.226 953.719 179.845 954.474C180.464 955.224 180.774 956.153 180.774 957.261C180.774 958.21 180.516 959.062 179.999 959.818C179.487 960.568 178.788 961.159 177.902 961.591C177.016 962.023 176.007 962.239 174.876 962.239Z" fill="black"/>
<line x1="480" y1="589" x2="480" y2="687" stroke="black" stroke-width="4"/>
<line x1="480" y1="737" x2="480" y2="760" stroke="black" stroke-width="4"/>
<line x1="263" y1="758" x2="482" y2="758" stroke="black" stroke-width="4"/>
<line x1="263" y1="590" x2="482" y2="590" stroke="black" stroke-width="4"/>
<path d="M314.114 684V666.545H320.011C321.375 666.545 322.494 666.778 323.369 667.244C324.244 667.705 324.892 668.338 325.312 669.145C325.733 669.952 325.943 670.869 325.943 671.898C325.943 672.926 325.733 673.838 325.312 674.634C324.892 675.429 324.247 676.054 323.378 676.509C322.509 676.957 321.398 677.182 320.045 677.182H315.273V675.273H319.977C320.909 675.273 321.659 675.136 322.227 674.864C322.801 674.591 323.216 674.205 323.472 673.705C323.733 673.199 323.864 672.597 323.864 671.898C323.864 671.199 323.733 670.588 323.472 670.065C323.21 669.543 322.793 669.139 322.219 668.855C321.645 668.565 320.886 668.42 319.943 668.42H316.227V684H314.114ZM322.33 676.159L326.625 684H324.17L319.943 676.159H322.33ZM344.192 675.273C344.192 677.114 343.86 678.705 343.195 680.045C342.531 681.386 341.619 682.42 340.46 683.148C339.3 683.875 337.977 684.239 336.488 684.239C334.999 684.239 333.675 683.875 332.516 683.148C331.357 682.42 330.445 681.386 329.781 680.045C329.116 678.705 328.783 677.114 328.783 675.273C328.783 673.432 329.116 671.841 329.781 670.5C330.445 669.159 331.357 668.125 332.516 667.398C333.675 666.67 334.999 666.307 336.488 666.307C337.977 666.307 339.3 666.67 340.46 667.398C341.619 668.125 342.531 669.159 343.195 670.5C343.86 671.841 344.192 673.432 344.192 675.273ZM342.147 675.273C342.147 673.761 341.894 672.486 341.388 671.446C340.888 670.406 340.21 669.619 339.352 669.085C338.499 668.551 337.545 668.284 336.488 668.284C335.431 668.284 334.474 668.551 333.616 669.085C332.763 669.619 332.085 670.406 331.579 671.446C331.079 672.486 330.829 673.761 330.829 675.273C330.829 676.784 331.079 678.06 331.579 679.099C332.085 680.139 332.763 680.926 333.616 681.46C334.474 681.994 335.431 682.261 336.488 682.261C337.545 682.261 338.499 681.994 339.352 681.46C340.21 680.926 340.888 680.139 341.388 679.099C341.894 678.06 342.147 676.784 342.147 675.273ZM362.474 675.273C362.474 677.114 362.141 678.705 361.477 680.045C360.812 681.386 359.9 682.42 358.741 683.148C357.582 683.875 356.258 684.239 354.769 684.239C353.281 684.239 351.957 683.875 350.798 683.148C349.638 682.42 348.727 681.386 348.062 680.045C347.397 678.705 347.065 677.114 347.065 675.273C347.065 673.432 347.397 671.841 348.062 670.5C348.727 669.159 349.638 668.125 350.798 667.398C351.957 666.67 353.281 666.307 354.769 666.307C356.258 666.307 357.582 666.67 358.741 667.398C359.9 668.125 360.812 669.159 361.477 670.5C362.141 671.841 362.474 673.432 362.474 675.273ZM360.428 675.273C360.428 673.761 360.175 672.486 359.67 671.446C359.17 670.406 358.491 669.619 357.633 669.085C356.781 668.551 355.826 668.284 354.769 668.284C353.712 668.284 352.755 668.551 351.897 669.085C351.045 669.619 350.366 670.406 349.86 671.446C349.36 672.486 349.11 673.761 349.11 675.273C349.11 676.784 349.36 678.06 349.86 679.099C350.366 680.139 351.045 680.926 351.897 681.46C352.755 681.994 353.712 682.261 354.769 682.261C355.826 682.261 356.781 681.994 357.633 681.46C358.491 680.926 359.17 680.139 359.67 679.099C360.175 678.06 360.428 676.784 360.428 675.273ZM366.028 666.545H368.55L374.482 681.034H374.687L380.619 666.545H383.141V684H381.164V670.739H380.994L375.539 684H373.63L368.175 670.739H368.005V684H366.028V666.545ZM399.959 666.545V684H397.845V668.761H397.743L393.482 671.591V669.443L397.845 666.545H399.959ZM404.979 684V682.466L410.74 676.159C411.416 675.42 411.973 674.778 412.411 674.233C412.848 673.682 413.172 673.165 413.382 672.682C413.598 672.193 413.706 671.682 413.706 671.148C413.706 670.534 413.558 670.003 413.263 669.554C412.973 669.105 412.575 668.759 412.07 668.514C411.564 668.27 410.996 668.148 410.365 668.148C409.695 668.148 409.109 668.287 408.609 668.565C408.115 668.838 407.732 669.222 407.459 669.716C407.192 670.21 407.058 670.79 407.058 671.455H405.047C405.047 670.432 405.283 669.534 405.754 668.761C406.226 667.989 406.868 667.386 407.68 666.955C408.499 666.523 409.416 666.307 410.433 666.307C411.456 666.307 412.362 666.523 413.152 666.955C413.942 667.386 414.561 667.969 415.01 668.702C415.459 669.435 415.683 670.25 415.683 671.148C415.683 671.79 415.567 672.418 415.334 673.031C415.107 673.639 414.709 674.318 414.141 675.068C413.578 675.812 412.797 676.722 411.797 677.795L407.876 681.989V682.125H415.99V684H404.979Z" fill="black"/>
<line x1="480" y1="417" x2="480" y2="515" stroke="black" stroke-width="4"/>
<line x1="480" y1="565" x2="480" y2="588" stroke="black" stroke-width="4"/>
<line x1="263" y1="416" x2="482" y2="416" stroke="black" stroke-width="4"/>
<path d="M323.114 506V488.545H329.011C330.375 488.545 331.494 488.778 332.369 489.244C333.244 489.705 333.892 490.338 334.312 491.145C334.733 491.952 334.943 492.869 334.943 493.898C334.943 494.926 334.733 495.838 334.312 496.634C333.892 497.429 333.247 498.054 332.378 498.509C331.509 498.957 330.398 499.182 329.045 499.182H324.273V497.273H328.977C329.909 497.273 330.659 497.136 331.227 496.864C331.801 496.591 332.216 496.205 332.472 495.705C332.733 495.199 332.864 494.597 332.864 493.898C332.864 493.199 332.733 492.588 332.472 492.065C332.21 491.543 331.793 491.139 331.219 490.855C330.645 490.565 329.886 490.42 328.943 490.42H325.227V506H323.114ZM331.33 498.159L335.625 506H333.17L328.943 498.159H331.33ZM353.192 497.273C353.192 499.114 352.86 500.705 352.195 502.045C351.531 503.386 350.619 504.42 349.46 505.148C348.3 505.875 346.977 506.239 345.488 506.239C343.999 506.239 342.675 505.875 341.516 505.148C340.357 504.42 339.445 503.386 338.781 502.045C338.116 500.705 337.783 499.114 337.783 497.273C337.783 495.432 338.116 493.841 338.781 492.5C339.445 491.159 340.357 490.125 341.516 489.398C342.675 488.67 343.999 488.307 345.488 488.307C346.977 488.307 348.3 488.67 349.46 489.398C350.619 490.125 351.531 491.159 352.195 492.5C352.86 493.841 353.192 495.432 353.192 497.273ZM351.147 497.273C351.147 495.761 350.894 494.486 350.388 493.446C349.888 492.406 349.21 491.619 348.352 491.085C347.499 490.551 346.545 490.284 345.488 490.284C344.431 490.284 343.474 490.551 342.616 491.085C341.763 491.619 341.085 492.406 340.579 493.446C340.079 494.486 339.829 495.761 339.829 497.273C339.829 498.784 340.079 500.06 340.579 501.099C341.085 502.139 341.763 502.926 342.616 503.46C343.474 503.994 344.431 504.261 345.488 504.261C346.545 504.261 347.499 503.994 348.352 503.46C349.21 502.926 349.888 502.139 350.388 501.099C350.894 500.06 351.147 498.784 351.147 497.273ZM371.474 497.273C371.474 499.114 371.141 500.705 370.477 502.045C369.812 503.386 368.9 504.42 367.741 505.148C366.582 505.875 365.258 506.239 363.769 506.239C362.281 506.239 360.957 505.875 359.798 505.148C358.638 504.42 357.727 503.386 357.062 502.045C356.397 500.705 356.065 499.114 356.065 497.273C356.065 495.432 356.397 493.841 357.062 492.5C357.727 491.159 358.638 490.125 359.798 489.398C360.957 488.67 362.281 488.307 363.769 488.307C365.258 488.307 366.582 488.67 367.741 489.398C368.9 490.125 369.812 491.159 370.477 492.5C371.141 493.841 371.474 495.432 371.474 497.273ZM369.428 497.273C369.428 495.761 369.175 494.486 368.67 493.446C368.17 492.406 367.491 491.619 366.633 491.085C365.781 490.551 364.826 490.284 363.769 490.284C362.712 490.284 361.755 490.551 360.897 491.085C360.045 491.619 359.366 492.406 358.86 493.446C358.36 494.486 358.11 495.761 358.11 497.273C358.11 498.784 358.36 500.06 358.86 501.099C359.366 502.139 360.045 502.926 360.897 503.46C361.755 503.994 362.712 504.261 363.769 504.261C364.826 504.261 365.781 503.994 366.633 503.46C367.491 502.926 368.17 502.139 368.67 501.099C369.175 500.06 369.428 498.784 369.428 497.273ZM375.028 488.545H377.55L383.482 503.034H383.687L389.619 488.545H392.141V506H390.164V492.739H389.994L384.539 506H382.63L377.175 492.739H377.005V506H375.028V488.545ZM408.959 488.545V506H406.845V490.761H406.743L402.482 493.591V491.443L406.845 488.545H408.959ZM420.115 488.545V506H418.001V490.761H417.899L413.638 493.591V491.443L418.001 488.545H420.115Z" fill="black"/>
<line x1="480" y1="252" x2="480" y2="350" stroke="black" stroke-width="4"/>
<line x1="480" y1="400" x2="480" y2="423" stroke="black" stroke-width="4"/>
<line x1="263" y1="254" x2="482" y2="254" stroke="black" stroke-width="4"/>
<path d="M321.114 344V326.545H327.011C328.375 326.545 329.494 326.778 330.369 327.244C331.244 327.705 331.892 328.338 332.312 329.145C332.733 329.952 332.943 330.869 332.943 331.898C332.943 332.926 332.733 333.838 332.312 334.634C331.892 335.429 331.247 336.054 330.378 336.509C329.509 336.957 328.398 337.182 327.045 337.182H322.273V335.273H326.977C327.909 335.273 328.659 335.136 329.227 334.864C329.801 334.591 330.216 334.205 330.472 333.705C330.733 333.199 330.864 332.597 330.864 331.898C330.864 331.199 330.733 330.588 330.472 330.065C330.21 329.543 329.793 329.139 329.219 328.855C328.645 328.565 327.886 328.42 326.943 328.42H323.227V344H321.114ZM329.33 336.159L333.625 344H331.17L326.943 336.159H329.33ZM351.192 335.273C351.192 337.114 350.86 338.705 350.195 340.045C349.531 341.386 348.619 342.42 347.46 343.148C346.3 343.875 344.977 344.239 343.488 344.239C341.999 344.239 340.675 343.875 339.516 343.148C338.357 342.42 337.445 341.386 336.781 340.045C336.116 338.705 335.783 337.114 335.783 335.273C335.783 333.432 336.116 331.841 336.781 330.5C337.445 329.159 338.357 328.125 339.516 327.398C340.675 326.67 341.999 326.307 343.488 326.307C344.977 326.307 346.3 326.67 347.46 327.398C348.619 328.125 349.531 329.159 350.195 330.5C350.86 331.841 351.192 333.432 351.192 335.273ZM349.147 335.273C349.147 333.761 348.894 332.486 348.388 331.446C347.888 330.406 347.21 329.619 346.352 329.085C345.499 328.551 344.545 328.284 343.488 328.284C342.431 328.284 341.474 328.551 340.616 329.085C339.763 329.619 339.085 330.406 338.579 331.446C338.079 332.486 337.829 333.761 337.829 335.273C337.829 336.784 338.079 338.06 338.579 339.099C339.085 340.139 339.763 340.926 340.616 341.46C341.474 341.994 342.431 342.261 343.488 342.261C344.545 342.261 345.499 341.994 346.352 341.46C347.21 340.926 347.888 340.139 348.388 339.099C348.894 338.06 349.147 336.784 349.147 335.273ZM369.474 335.273C369.474 337.114 369.141 338.705 368.477 340.045C367.812 341.386 366.9 342.42 365.741 343.148C364.582 343.875 363.258 344.239 361.769 344.239C360.281 344.239 358.957 343.875 357.798 343.148C356.638 342.42 355.727 341.386 355.062 340.045C354.397 338.705 354.065 337.114 354.065 335.273C354.065 333.432 354.397 331.841 355.062 330.5C355.727 329.159 356.638 328.125 357.798 327.398C358.957 326.67 360.281 326.307 361.769 326.307C363.258 326.307 364.582 326.67 365.741 327.398C366.9 328.125 367.812 329.159 368.477 330.5C369.141 331.841 369.474 333.432 369.474 335.273ZM367.428 335.273C367.428 333.761 367.175 332.486 366.67 331.446C366.17 330.406 365.491 329.619 364.633 329.085C363.781 328.551 362.826 328.284 361.769 328.284C360.712 328.284 359.755 328.551 358.897 329.085C358.045 329.619 357.366 330.406 356.86 331.446C356.36 332.486 356.11 333.761 356.11 335.273C356.11 336.784 356.36 338.06 356.86 339.099C357.366 340.139 358.045 340.926 358.897 341.46C359.755 341.994 360.712 342.261 361.769 342.261C362.826 342.261 363.781 341.994 364.633 341.46C365.491 340.926 366.17 340.139 366.67 339.099C367.175 338.06 367.428 336.784 367.428 335.273ZM373.028 326.545H375.55L381.482 341.034H381.687L387.619 326.545H390.141V344H388.164V330.739H387.994L382.539 344H380.63L375.175 330.739H375.005V344H373.028V326.545ZM406.959 326.545V344H404.845V328.761H404.743L400.482 331.591V329.443L404.845 326.545H406.959ZM417.672 344.239C416.388 344.239 415.294 343.889 414.391 343.19C413.487 342.486 412.797 341.466 412.32 340.131C411.842 338.79 411.604 337.17 411.604 335.273C411.604 333.386 411.842 331.776 412.32 330.44C412.803 329.099 413.496 328.077 414.399 327.372C415.308 326.662 416.399 326.307 417.672 326.307C418.945 326.307 420.033 326.662 420.936 327.372C421.845 328.077 422.538 329.099 423.016 330.44C423.499 331.776 423.74 333.386 423.74 335.273C423.74 337.17 423.501 338.79 423.024 340.131C422.547 341.466 421.857 342.486 420.953 343.19C420.05 343.889 418.956 344.239 417.672 344.239ZM417.672 342.364C418.945 342.364 419.933 341.75 420.638 340.523C421.342 339.295 421.695 337.545 421.695 335.273C421.695 333.761 421.533 332.474 421.209 331.412C420.891 330.349 420.43 329.54 419.828 328.983C419.232 328.426 418.513 328.148 417.672 328.148C416.411 328.148 415.425 328.77 414.714 330.014C414.004 331.253 413.649 333.006 413.649 335.273C413.649 336.784 413.808 338.068 414.126 339.125C414.445 340.182 414.902 340.986 415.499 341.537C416.101 342.088 416.825 342.364 417.672 342.364Z" fill="black"/>
<line x1="591" y1="143" x2="433" y2="143" stroke="black" stroke-width="4"/>
<line x1="681" y1="143" x2="646" y2="143" stroke="black" stroke-width="4"/>
<line x1="435" y1="15" x2="435" y2="141" stroke="black" stroke-width="4"/>
<line x1="433" y1="17" x2="681" y2="17" stroke="black" stroke-width="4"/>
<line x1="679" y1="141" x2="679" y2="19" stroke="black" stroke-width="4"/>
<path d="M506.114 88V70.5455H512.011C513.375 70.5455 514.494 70.7784 515.369 71.2443C516.244 71.7045 516.892 72.3381 517.312 73.1449C517.733 73.9517 517.943 74.8693 517.943 75.8977C517.943 76.9261 517.733 77.8381 517.312 78.6335C516.892 79.429 516.247 80.054 515.378 80.5085C514.509 80.9574 513.398 81.1818 512.045 81.1818H507.273V79.2727H511.977C512.909 79.2727 513.659 79.1364 514.227 78.8636C514.801 78.5909 515.216 78.2045 515.472 77.7045C515.733 77.1989 515.864 76.5966 515.864 75.8977C515.864 75.1989 515.733 74.5881 515.472 74.0653C515.21 73.5426 514.793 73.1392 514.219 72.8551C513.645 72.5653 512.886 72.4205 511.943 72.4205H508.227V88H506.114ZM514.33 80.1591L518.625 88H516.17L511.943 80.1591H514.33ZM536.192 79.2727C536.192 81.1136 535.86 82.7045 535.195 84.0455C534.531 85.3864 533.619 86.4205 532.46 87.1477C531.3 87.875 529.977 88.2386 528.488 88.2386C526.999 88.2386 525.675 87.875 524.516 87.1477C523.357 86.4205 522.445 85.3864 521.781 84.0455C521.116 82.7045 520.783 81.1136 520.783 79.2727C520.783 77.4318 521.116 75.8409 521.781 74.5C522.445 73.1591 523.357 72.125 524.516 71.3977C525.675 70.6705 526.999 70.3068 528.488 70.3068C529.977 70.3068 531.3 70.6705 532.46 71.3977C533.619 72.125 534.531 73.1591 535.195 74.5C535.86 75.8409 536.192 77.4318 536.192 79.2727ZM534.147 79.2727C534.147 77.7614 533.894 76.4858 533.388 75.446C532.888 74.4062 532.21 73.6193 531.352 73.0852C530.499 72.5511 529.545 72.2841 528.488 72.2841C527.431 72.2841 526.474 72.5511 525.616 73.0852C524.763 73.6193 524.085 74.4062 523.579 75.446C523.079 76.4858 522.829 77.7614 522.829 79.2727C522.829 80.7841 523.079 82.0597 523.579 83.0994C524.085 84.1392 524.763 84.9261 525.616 85.4602C526.474 85.9943 527.431 86.2614 528.488 86.2614C529.545 86.2614 530.499 85.9943 531.352 85.4602C532.21 84.9261 532.888 84.1392 533.388 83.0994C533.894 82.0597 534.147 80.7841 534.147 79.2727ZM554.474 79.2727C554.474 81.1136 554.141 82.7045 553.477 84.0455C552.812 85.3864 551.9 86.4205 550.741 87.1477C549.582 87.875 548.258 88.2386 546.769 88.2386C545.281 88.2386 543.957 87.875 542.798 87.1477C541.638 86.4205 540.727 85.3864 540.062 84.0455C539.397 82.7045 539.065 81.1136 539.065 79.2727C539.065 77.4318 539.397 75.8409 540.062 74.5C540.727 73.1591 541.638 72.125 542.798 71.3977C543.957 70.6705 545.281 70.3068 546.769 70.3068C548.258 70.3068 549.582 70.6705 550.741 71.3977C551.9 72.125 552.812 73.1591 553.477 74.5C554.141 75.8409 554.474 77.4318 554.474 79.2727ZM552.428 79.2727C552.428 77.7614 552.175 76.4858 551.67 75.446C551.17 74.4062 550.491 73.6193 549.633 73.0852C548.781 72.5511 547.826 72.2841 546.769 72.2841C545.712 72.2841 544.755 72.5511 543.897 73.0852C543.045 73.6193 542.366 74.4062 541.86 75.446C541.36 76.4858 541.11 77.7614 541.11 79.2727C541.11 80.7841 541.36 82.0597 541.86 83.0994C542.366 84.1392 543.045 84.9261 543.897 85.4602C544.755 85.9943 545.712 86.2614 546.769 86.2614C547.826 86.2614 548.781 85.9943 549.633 85.4602C550.491 84.9261 551.17 84.1392 551.67 83.0994C552.175 82.0597 552.428 80.7841 552.428 79.2727ZM558.028 70.5455H560.55L566.482 85.0341H566.687L572.619 70.5455H575.141V88H573.164V74.7386H572.994L567.539 88H565.63L560.175 74.7386H560.005V88H558.028V70.5455ZM591.379 70.3068C592.095 70.3125 592.811 70.4489 593.527 70.7159C594.243 70.983 594.896 71.4261 595.487 72.0455C596.078 72.6591 596.553 73.4972 596.911 74.5597C597.268 75.6222 597.447 76.9545 597.447 78.5568C597.447 80.108 597.3 81.4858 597.004 82.6903C596.714 83.8892 596.294 84.9006 595.743 85.7244C595.197 86.5483 594.533 87.1733 593.749 87.5994C592.97 88.0256 592.089 88.2386 591.107 88.2386C590.129 88.2386 589.257 88.0455 588.49 87.6591C587.729 87.267 587.104 86.7244 586.615 86.0312C586.132 85.3324 585.822 84.5227 585.686 83.6023H587.766C587.953 84.4034 588.325 85.0653 588.882 85.5881C589.445 86.1051 590.186 86.3636 591.107 86.3636C592.453 86.3636 593.516 85.7756 594.294 84.5994C595.078 83.4233 595.47 81.7614 595.47 79.6136H595.334C595.016 80.0909 594.638 80.5028 594.2 80.8494C593.763 81.196 593.277 81.4631 592.743 81.6506C592.209 81.8381 591.641 81.9318 591.038 81.9318C590.038 81.9318 589.121 81.6847 588.286 81.1903C587.456 80.6903 586.791 80.0057 586.291 79.1364C585.797 78.2614 585.55 77.2614 585.55 76.1364C585.55 75.0682 585.788 74.0909 586.266 73.2045C586.749 72.3125 587.425 71.6023 588.294 71.0739C589.169 70.5455 590.197 70.2898 591.379 70.3068ZM591.379 72.1818C590.663 72.1818 590.018 72.3608 589.445 72.7188C588.876 73.071 588.425 73.5483 588.089 74.1506C587.76 74.7472 587.595 75.4091 587.595 76.1364C587.595 76.8636 587.754 77.5256 588.072 78.1222C588.396 78.7131 588.837 79.1847 589.393 79.5369C589.956 79.8835 590.595 80.0568 591.311 80.0568C591.851 80.0568 592.354 79.9517 592.82 79.7415C593.286 79.5256 593.692 79.233 594.038 78.8636C594.391 78.4886 594.666 78.0653 594.865 77.5938C595.064 77.1165 595.163 76.6193 595.163 76.1023C595.163 75.4205 594.999 74.7812 594.669 74.1847C594.345 73.5881 593.896 73.1051 593.322 72.7358C592.754 72.3665 592.107 72.1818 591.379 72.1818Z" fill="black"/>
<line x1="839" y1="143" x2="681" y2="143" stroke="black" stroke-width="4"/>
<line x1="929" y1="143" x2="894" y2="143" stroke="black" stroke-width="4"/>
<line x1="683" y1="15" x2="683" y2="141" stroke="black" stroke-width="4"/>
<line x1="681" y1="17" x2="929" y2="17" stroke="black" stroke-width="4"/>
<line x1="927" y1="141" x2="927" y2="19" stroke="black" stroke-width="4"/>
<path d="M760.114 88V70.5455H766.011C767.375 70.5455 768.494 70.7784 769.369 71.2443C770.244 71.7045 770.892 72.3381 771.312 73.1449C771.733 73.9517 771.943 74.8693 771.943 75.8977C771.943 76.9261 771.733 77.8381 771.312 78.6335C770.892 79.429 770.247 80.054 769.378 80.5085C768.509 80.9574 767.398 81.1818 766.045 81.1818H761.273V79.2727H765.977C766.909 79.2727 767.659 79.1364 768.227 78.8636C768.801 78.5909 769.216 78.2045 769.472 77.7045C769.733 77.1989 769.864 76.5966 769.864 75.8977C769.864 75.1989 769.733 74.5881 769.472 74.0653C769.21 73.5426 768.793 73.1392 768.219 72.8551C767.645 72.5653 766.886 72.4205 765.943 72.4205H762.227V88H760.114ZM768.33 80.1591L772.625 88H770.17L765.943 80.1591H768.33ZM790.192 79.2727C790.192 81.1136 789.86 82.7045 789.195 84.0455C788.531 85.3864 787.619 86.4205 786.46 87.1477C785.3 87.875 783.977 88.2386 782.488 88.2386C780.999 88.2386 779.675 87.875 778.516 87.1477C777.357 86.4205 776.445 85.3864 775.781 84.0455C775.116 82.7045 774.783 81.1136 774.783 79.2727C774.783 77.4318 775.116 75.8409 775.781 74.5C776.445 73.1591 777.357 72.125 778.516 71.3977C779.675 70.6705 780.999 70.3068 782.488 70.3068C783.977 70.3068 785.3 70.6705 786.46 71.3977C787.619 72.125 788.531 73.1591 789.195 74.5C789.86 75.8409 790.192 77.4318 790.192 79.2727ZM788.147 79.2727C788.147 77.7614 787.894 76.4858 787.388 75.446C786.888 74.4062 786.21 73.6193 785.352 73.0852C784.499 72.5511 783.545 72.2841 782.488 72.2841C781.431 72.2841 780.474 72.5511 779.616 73.0852C778.763 73.6193 778.085 74.4062 777.579 75.446C777.079 76.4858 776.829 77.7614 776.829 79.2727C776.829 80.7841 777.079 82.0597 777.579 83.0994C778.085 84.1392 778.763 84.9261 779.616 85.4602C780.474 85.9943 781.431 86.2614 782.488 86.2614C783.545 86.2614 784.499 85.9943 785.352 85.4602C786.21 84.9261 786.888 84.1392 787.388 83.0994C787.894 82.0597 788.147 80.7841 788.147 79.2727ZM808.474 79.2727C808.474 81.1136 808.141 82.7045 807.477 84.0455C806.812 85.3864 805.9 86.4205 804.741 87.1477C803.582 87.875 802.258 88.2386 800.769 88.2386C799.281 88.2386 797.957 87.875 796.798 87.1477C795.638 86.4205 794.727 85.3864 794.062 84.0455C793.397 82.7045 793.065 81.1136 793.065 79.2727C793.065 77.4318 793.397 75.8409 794.062 74.5C794.727 73.1591 795.638 72.125 796.798 71.3977C797.957 70.6705 799.281 70.3068 800.769 70.3068C802.258 70.3068 803.582 70.6705 804.741 71.3977C805.9 72.125 806.812 73.1591 807.477 74.5C808.141 75.8409 808.474 77.4318 808.474 79.2727ZM806.428 79.2727C806.428 77.7614 806.175 76.4858 805.67 75.446C805.17 74.4062 804.491 73.6193 803.633 73.0852C802.781 72.5511 801.826 72.2841 800.769 72.2841C799.712 72.2841 798.755 72.5511 797.897 73.0852C797.045 73.6193 796.366 74.4062 795.86 75.446C795.36 76.4858 795.11 77.7614 795.11 79.2727C795.11 80.7841 795.36 82.0597 795.86 83.0994C796.366 84.1392 797.045 84.9261 797.897 85.4602C798.755 85.9943 799.712 86.2614 800.769 86.2614C801.826 86.2614 802.781 85.9943 803.633 85.4602C804.491 84.9261 805.17 84.1392 805.67 83.0994C806.175 82.0597 806.428 80.7841 806.428 79.2727ZM812.028 70.5455H814.55L820.482 85.0341H820.687L826.619 70.5455H829.141V88H827.164V74.7386H826.994L821.539 88H819.63L814.175 74.7386H814.005V88H812.028V70.5455ZM845.413 88.2386C844.243 88.2386 843.209 88.0312 842.311 87.6165C841.419 87.196 840.723 86.6193 840.223 85.8864C839.723 85.1477 839.476 84.3068 839.482 83.3636C839.476 82.625 839.621 81.9432 839.916 81.3182C840.212 80.6875 840.615 80.1619 841.126 79.7415C841.643 79.3153 842.22 79.0455 842.857 78.9318V78.8295C842.021 78.6136 841.357 78.1449 840.862 77.4233C840.368 76.696 840.124 75.8693 840.129 74.9432C840.124 74.0568 840.348 73.2642 840.803 72.5653C841.257 71.8665 841.882 71.3153 842.678 70.9119C843.479 70.5085 844.391 70.3068 845.413 70.3068C846.425 70.3068 847.328 70.5085 848.124 70.9119C848.919 71.3153 849.544 71.8665 849.999 72.5653C850.459 73.2642 850.692 74.0568 850.697 74.9432C850.692 75.8693 850.439 76.696 849.939 77.4233C849.445 78.1449 848.788 78.6136 847.97 78.8295V78.9318C848.601 79.0455 849.169 79.3153 849.675 79.7415C850.18 80.1619 850.584 80.6875 850.885 81.3182C851.186 81.9432 851.339 82.625 851.345 83.3636C851.339 84.3068 851.084 85.1477 850.578 85.8864C850.078 86.6193 849.382 87.196 848.49 87.6165C847.604 88.0312 846.578 88.2386 845.413 88.2386ZM845.413 86.3636C846.203 86.3636 846.885 86.2358 847.459 85.9801C848.033 85.7244 848.476 85.3636 848.788 84.8977C849.101 84.4318 849.26 83.8864 849.266 83.2614C849.26 82.6023 849.089 82.0199 848.754 81.5142C848.419 81.0085 847.962 80.6108 847.382 80.321C846.808 80.0312 846.152 79.8864 845.413 79.8864C844.669 79.8864 844.004 80.0312 843.419 80.321C842.839 80.6108 842.382 81.0085 842.047 81.5142C841.717 82.0199 841.555 82.6023 841.561 83.2614C841.555 83.8864 841.706 84.4318 842.013 84.8977C842.325 85.3636 842.771 85.7244 843.351 85.9801C843.93 86.2358 844.618 86.3636 845.413 86.3636ZM845.413 78.0795C846.038 78.0795 846.592 77.9545 847.075 77.7045C847.564 77.4545 847.947 77.1051 848.226 76.6562C848.504 76.2074 848.646 75.6818 848.652 75.0795C848.646 74.4886 848.507 73.9744 848.234 73.5369C847.962 73.0937 847.584 72.7528 847.101 72.5142C846.618 72.2699 846.055 72.1477 845.413 72.1477C844.76 72.1477 844.189 72.2699 843.7 72.5142C843.212 72.7528 842.834 73.0937 842.567 73.5369C842.3 73.9744 842.169 74.4886 842.175 75.0795C842.169 75.6818 842.303 76.2074 842.575 76.6562C842.854 77.1051 843.237 77.4545 843.726 77.7045C844.214 77.9545 844.777 78.0795 845.413 78.0795Z" fill="black"/>
<line x1="1087" y1="143" x2="929" y2="143" stroke="black" stroke-width="4"/>
<line x1="1177" y1="143" x2="1142" y2="143" stroke="black" stroke-width="4"/>
<line x1="931" y1="15" x2="931" y2="141" stroke="black" stroke-width="4"/>
<line x1="929" y1="17" x2="1177" y2="17" stroke="black" stroke-width="4"/>
<line x1="1175" y1="141" x2="1175" y2="19" stroke="black" stroke-width="4"/>
<path d="M1008.11 88V70.5455H1014.01C1015.38 70.5455 1016.49 70.7784 1017.37 71.2443C1018.24 71.7045 1018.89 72.3381 1019.31 73.1449C1019.73 73.9517 1019.94 74.8693 1019.94 75.8977C1019.94 76.9261 1019.73 77.8381 1019.31 78.6335C1018.89 79.429 1018.25 80.054 1017.38 80.5085C1016.51 80.9574 1015.4 81.1818 1014.05 81.1818H1009.27V79.2727H1013.98C1014.91 79.2727 1015.66 79.1364 1016.23 78.8636C1016.8 78.5909 1017.22 78.2045 1017.47 77.7045C1017.73 77.1989 1017.86 76.5966 1017.86 75.8977C1017.86 75.1989 1017.73 74.5881 1017.47 74.0653C1017.21 73.5426 1016.79 73.1392 1016.22 72.8551C1015.64 72.5653 1014.89 72.4205 1013.94 72.4205H1010.23V88H1008.11ZM1016.33 80.1591L1020.62 88H1018.17L1013.94 80.1591H1016.33ZM1038.19 79.2727C1038.19 81.1136 1037.86 82.7045 1037.2 84.0455C1036.53 85.3864 1035.62 86.4205 1034.46 87.1477C1033.3 87.875 1031.98 88.2386 1030.49 88.2386C1029 88.2386 1027.68 87.875 1026.52 87.1477C1025.36 86.4205 1024.45 85.3864 1023.78 84.0455C1023.12 82.7045 1022.78 81.1136 1022.78 79.2727C1022.78 77.4318 1023.12 75.8409 1023.78 74.5C1024.45 73.1591 1025.36 72.125 1026.52 71.3977C1027.68 70.6705 1029 70.3068 1030.49 70.3068C1031.98 70.3068 1033.3 70.6705 1034.46 71.3977C1035.62 72.125 1036.53 73.1591 1037.2 74.5C1037.86 75.8409 1038.19 77.4318 1038.19 79.2727ZM1036.15 79.2727C1036.15 77.7614 1035.89 76.4858 1035.39 75.446C1034.89 74.4062 1034.21 73.6193 1033.35 73.0852C1032.5 72.5511 1031.54 72.2841 1030.49 72.2841C1029.43 72.2841 1028.47 72.5511 1027.62 73.0852C1026.76 73.6193 1026.08 74.4062 1025.58 75.446C1025.08 76.4858 1024.83 77.7614 1024.83 79.2727C1024.83 80.7841 1025.08 82.0597 1025.58 83.0994C1026.08 84.1392 1026.76 84.9261 1027.62 85.4602C1028.47 85.9943 1029.43 86.2614 1030.49 86.2614C1031.54 86.2614 1032.5 85.9943 1033.35 85.4602C1034.21 84.9261 1034.89 84.1392 1035.39 83.0994C1035.89 82.0597 1036.15 80.7841 1036.15 79.2727ZM1056.47 79.2727C1056.47 81.1136 1056.14 82.7045 1055.48 84.0455C1054.81 85.3864 1053.9 86.4205 1052.74 87.1477C1051.58 87.875 1050.26 88.2386 1048.77 88.2386C1047.28 88.2386 1045.96 87.875 1044.8 87.1477C1043.64 86.4205 1042.73 85.3864 1042.06 84.0455C1041.4 82.7045 1041.06 81.1136 1041.06 79.2727C1041.06 77.4318 1041.4 75.8409 1042.06 74.5C1042.73 73.1591 1043.64 72.125 1044.8 71.3977C1045.96 70.6705 1047.28 70.3068 1048.77 70.3068C1050.26 70.3068 1051.58 70.6705 1052.74 71.3977C1053.9 72.125 1054.81 73.1591 1055.48 74.5C1056.14 75.8409 1056.47 77.4318 1056.47 79.2727ZM1054.43 79.2727C1054.43 77.7614 1054.18 76.4858 1053.67 75.446C1053.17 74.4062 1052.49 73.6193 1051.63 73.0852C1050.78 72.5511 1049.83 72.2841 1048.77 72.2841C1047.71 72.2841 1046.75 72.5511 1045.9 73.0852C1045.04 73.6193 1044.37 74.4062 1043.86 75.446C1043.36 76.4858 1043.11 77.7614 1043.11 79.2727C1043.11 80.7841 1043.36 82.0597 1043.86 83.0994C1044.37 84.1392 1045.04 84.9261 1045.9 85.4602C1046.75 85.9943 1047.71 86.2614 1048.77 86.2614C1049.83 86.2614 1050.78 85.9943 1051.63 85.4602C1052.49 84.9261 1053.17 84.1392 1053.67 83.0994C1054.18 82.0597 1054.43 80.7841 1054.43 79.2727ZM1060.03 70.5455H1062.55L1068.48 85.0341H1068.69L1074.62 70.5455H1077.14V88H1075.16V74.7386H1074.99L1069.54 88H1067.63L1062.18 74.7386H1062V88H1060.03V70.5455ZM1088.37 88L1096.17 72.5568V72.4205H1087.17V70.5455H1098.36V72.5227L1090.58 88H1088.37Z" fill="black"/>
<line x1="1335" y1="143" x2="1177" y2="143" stroke="black" stroke-width="4"/>
<line x1="1425" y1="143" x2="1390" y2="143" stroke="black" stroke-width="4"/>
<line x1="1179" y1="15" x2="1179" y2="141" stroke="black" stroke-width="4"/>
<line x1="1177" y1="17" x2="1425" y2="17" stroke="black" stroke-width="4"/>
<line x1="1423" y1="141" x2="1423" y2="19" stroke="black" stroke-width="4"/>
<path d="M1258.11 88V70.5455H1264.01C1265.38 70.5455 1266.49 70.7784 1267.37 71.2443C1268.24 71.7045 1268.89 72.3381 1269.31 73.1449C1269.73 73.9517 1269.94 74.8693 1269.94 75.8977C1269.94 76.9261 1269.73 77.8381 1269.31 78.6335C1268.89 79.429 1268.25 80.054 1267.38 80.5085C1266.51 80.9574 1265.4 81.1818 1264.05 81.1818H1259.27V79.2727H1263.98C1264.91 79.2727 1265.66 79.1364 1266.23 78.8636C1266.8 78.5909 1267.22 78.2045 1267.47 77.7045C1267.73 77.1989 1267.86 76.5966 1267.86 75.8977C1267.86 75.1989 1267.73 74.5881 1267.47 74.0653C1267.21 73.5426 1266.79 73.1392 1266.22 72.8551C1265.64 72.5653 1264.89 72.4205 1263.94 72.4205H1260.23V88H1258.11ZM1266.33 80.1591L1270.62 88H1268.17L1263.94 80.1591H1266.33ZM1288.19 79.2727C1288.19 81.1136 1287.86 82.7045 1287.2 84.0455C1286.53 85.3864 1285.62 86.4205 1284.46 87.1477C1283.3 87.875 1281.98 88.2386 1280.49 88.2386C1279 88.2386 1277.68 87.875 1276.52 87.1477C1275.36 86.4205 1274.45 85.3864 1273.78 84.0455C1273.12 82.7045 1272.78 81.1136 1272.78 79.2727C1272.78 77.4318 1273.12 75.8409 1273.78 74.5C1274.45 73.1591 1275.36 72.125 1276.52 71.3977C1277.68 70.6705 1279 70.3068 1280.49 70.3068C1281.98 70.3068 1283.3 70.6705 1284.46 71.3977C1285.62 72.125 1286.53 73.1591 1287.2 74.5C1287.86 75.8409 1288.19 77.4318 1288.19 79.2727ZM1286.15 79.2727C1286.15 77.7614 1285.89 76.4858 1285.39 75.446C1284.89 74.4062 1284.21 73.6193 1283.35 73.0852C1282.5 72.5511 1281.54 72.2841 1280.49 72.2841C1279.43 72.2841 1278.47 72.5511 1277.62 73.0852C1276.76 73.6193 1276.08 74.4062 1275.58 75.446C1275.08 76.4858 1274.83 77.7614 1274.83 79.2727C1274.83 80.7841 1275.08 82.0597 1275.58 83.0994C1276.08 84.1392 1276.76 84.9261 1277.62 85.4602C1278.47 85.9943 1279.43 86.2614 1280.49 86.2614C1281.54 86.2614 1282.5 85.9943 1283.35 85.4602C1284.21 84.9261 1284.89 84.1392 1285.39 83.0994C1285.89 82.0597 1286.15 80.7841 1286.15 79.2727ZM1306.47 79.2727C1306.47 81.1136 1306.14 82.7045 1305.48 84.0455C1304.81 85.3864 1303.9 86.4205 1302.74 87.1477C1301.58 87.875 1300.26 88.2386 1298.77 88.2386C1297.28 88.2386 1295.96 87.875 1294.8 87.1477C1293.64 86.4205 1292.73 85.3864 1292.06 84.0455C1291.4 82.7045 1291.06 81.1136 1291.06 79.2727C1291.06 77.4318 1291.4 75.8409 1292.06 74.5C1292.73 73.1591 1293.64 72.125 1294.8 71.3977C1295.96 70.6705 1297.28 70.3068 1298.77 70.3068C1300.26 70.3068 1301.58 70.6705 1302.74 71.3977C1303.9 72.125 1304.81 73.1591 1305.48 74.5C1306.14 75.8409 1306.47 77.4318 1306.47 79.2727ZM1304.43 79.2727C1304.43 77.7614 1304.18 76.4858 1303.67 75.446C1303.17 74.4062 1302.49 73.6193 1301.63 73.0852C1300.78 72.5511 1299.83 72.2841 1298.77 72.2841C1297.71 72.2841 1296.75 72.5511 1295.9 73.0852C1295.04 73.6193 1294.37 74.4062 1293.86 75.446C1293.36 76.4858 1293.11 77.7614 1293.11 79.2727C1293.11 80.7841 1293.36 82.0597 1293.86 83.0994C1294.37 84.1392 1295.04 84.9261 1295.9 85.4602C1296.75 85.9943 1297.71 86.2614 1298.77 86.2614C1299.83 86.2614 1300.78 85.9943 1301.63 85.4602C1302.49 84.9261 1303.17 84.1392 1303.67 83.0994C1304.18 82.0597 1304.43 80.7841 1304.43 79.2727ZM1310.03 70.5455H1312.55L1318.48 85.0341H1318.69L1324.62 70.5455H1327.14V88H1325.16V74.7386H1324.99L1319.54 88H1317.63L1312.18 74.7386H1312V88H1310.03V70.5455ZM1343.62 88.2386C1342.9 88.2273 1342.19 88.0909 1341.47 87.8295C1340.75 87.5682 1340.1 87.1278 1339.51 86.5085C1338.92 85.8835 1338.44 85.0398 1338.09 83.9773C1337.73 82.9091 1337.55 81.5682 1337.55 79.9545C1337.55 78.4091 1337.69 77.0398 1337.98 75.8466C1338.27 74.6477 1338.69 73.6392 1339.25 72.821C1339.8 71.9972 1340.46 71.3722 1341.24 70.946C1342.02 70.5199 1342.91 70.3068 1343.89 70.3068C1344.87 70.3068 1345.74 70.5028 1346.5 70.8949C1347.27 71.2812 1347.89 71.821 1348.37 72.5142C1348.86 73.2074 1349.17 74.0057 1349.31 74.9091H1347.23C1347.04 74.125 1346.66 73.4744 1346.11 72.9574C1345.55 72.4403 1344.81 72.1818 1343.89 72.1818C1342.54 72.1818 1341.47 72.7699 1340.69 73.946C1339.92 75.1222 1339.53 76.7727 1339.53 78.8977H1339.66C1339.98 78.4148 1340.36 78.0028 1340.8 77.6619C1341.24 77.3153 1341.73 77.0483 1342.26 76.8608C1342.8 76.6733 1343.36 76.5795 1343.96 76.5795C1344.96 76.5795 1345.87 76.8295 1346.7 77.3295C1347.53 77.8239 1348.2 78.5085 1348.7 79.3835C1349.2 80.2528 1349.45 81.25 1349.45 82.375C1349.45 83.4545 1349.21 84.4432 1348.72 85.3409C1348.24 86.233 1347.56 86.9432 1346.69 87.4716C1345.82 87.9943 1344.79 88.25 1343.62 88.2386ZM1343.62 86.3636C1344.33 86.3636 1344.98 86.1847 1345.54 85.8267C1346.12 85.4687 1346.57 84.9886 1346.9 84.3864C1347.23 83.7841 1347.4 83.1136 1347.4 82.375C1347.4 81.6534 1347.24 80.9972 1346.92 80.4062C1346.6 79.8097 1346.16 79.3352 1345.6 78.983C1345.04 78.6307 1344.4 78.4545 1343.69 78.4545C1343.15 78.4545 1342.64 78.5625 1342.18 78.7784C1341.71 78.9886 1341.3 79.2784 1340.95 79.6477C1340.6 80.017 1340.33 80.4403 1340.13 80.9176C1339.93 81.3892 1339.83 81.8864 1339.83 82.4091C1339.83 83.1023 1340 83.75 1340.32 84.3523C1340.65 84.9545 1341.1 85.4403 1341.67 85.8097C1342.24 86.179 1342.89 86.3636 1343.62 86.3636Z" fill="black"/>
<line x1="1179" y1="463" x2="1179" y2="252" stroke="black" stroke-width="4"/>
<line x1="1240" y1="254" x2="1425" y2="254" stroke="black" stroke-width="4"/>
<line x1="1173" y1="461" x2="1425" y2="461" stroke="black" stroke-width="4"/>
<path d="M1258.11 358V340.545H1264.01C1265.38 340.545 1266.49 340.778 1267.37 341.244C1268.24 341.705 1268.89 342.338 1269.31 343.145C1269.73 343.952 1269.94 344.869 1269.94 345.898C1269.94 346.926 1269.73 347.838 1269.31 348.634C1268.89 349.429 1268.25 350.054 1267.38 350.509C1266.51 350.957 1265.4 351.182 1264.05 351.182H1259.27V349.273H1263.98C1264.91 349.273 1265.66 349.136 1266.23 348.864C1266.8 348.591 1267.22 348.205 1267.47 347.705C1267.73 347.199 1267.86 346.597 1267.86 345.898C1267.86 345.199 1267.73 344.588 1267.47 344.065C1267.21 343.543 1266.79 343.139 1266.22 342.855C1265.64 342.565 1264.89 342.42 1263.94 342.42H1260.23V358H1258.11ZM1266.33 350.159L1270.62 358H1268.17L1263.94 350.159H1266.33ZM1288.19 349.273C1288.19 351.114 1287.86 352.705 1287.2 354.045C1286.53 355.386 1285.62 356.42 1284.46 357.148C1283.3 357.875 1281.98 358.239 1280.49 358.239C1279 358.239 1277.68 357.875 1276.52 357.148C1275.36 356.42 1274.45 355.386 1273.78 354.045C1273.12 352.705 1272.78 351.114 1272.78 349.273C1272.78 347.432 1273.12 345.841 1273.78 344.5C1274.45 343.159 1275.36 342.125 1276.52 341.398C1277.68 340.67 1279 340.307 1280.49 340.307C1281.98 340.307 1283.3 340.67 1284.46 341.398C1285.62 342.125 1286.53 343.159 1287.2 344.5C1287.86 345.841 1288.19 347.432 1288.19 349.273ZM1286.15 349.273C1286.15 347.761 1285.89 346.486 1285.39 345.446C1284.89 344.406 1284.21 343.619 1283.35 343.085C1282.5 342.551 1281.54 342.284 1280.49 342.284C1279.43 342.284 1278.47 342.551 1277.62 343.085C1276.76 343.619 1276.08 344.406 1275.58 345.446C1275.08 346.486 1274.83 347.761 1274.83 349.273C1274.83 350.784 1275.08 352.06 1275.58 353.099C1276.08 354.139 1276.76 354.926 1277.62 355.46C1278.47 355.994 1279.43 356.261 1280.49 356.261C1281.54 356.261 1282.5 355.994 1283.35 355.46C1284.21 354.926 1284.89 354.139 1285.39 353.099C1285.89 352.06 1286.15 350.784 1286.15 349.273ZM1306.47 349.273C1306.47 351.114 1306.14 352.705 1305.48 354.045C1304.81 355.386 1303.9 356.42 1302.74 357.148C1301.58 357.875 1300.26 358.239 1298.77 358.239C1297.28 358.239 1295.96 357.875 1294.8 357.148C1293.64 356.42 1292.73 355.386 1292.06 354.045C1291.4 352.705 1291.06 351.114 1291.06 349.273C1291.06 347.432 1291.4 345.841 1292.06 344.5C1292.73 343.159 1293.64 342.125 1294.8 341.398C1295.96 340.67 1297.28 340.307 1298.77 340.307C1300.26 340.307 1301.58 340.67 1302.74 341.398C1303.9 342.125 1304.81 343.159 1305.48 344.5C1306.14 345.841 1306.47 347.432 1306.47 349.273ZM1304.43 349.273C1304.43 347.761 1304.18 346.486 1303.67 345.446C1303.17 344.406 1302.49 343.619 1301.63 343.085C1300.78 342.551 1299.83 342.284 1298.77 342.284C1297.71 342.284 1296.75 342.551 1295.9 343.085C1295.04 343.619 1294.37 344.406 1293.86 345.446C1293.36 346.486 1293.11 347.761 1293.11 349.273C1293.11 350.784 1293.36 352.06 1293.86 353.099C1294.37 354.139 1295.04 354.926 1295.9 355.46C1296.75 355.994 1297.71 356.261 1298.77 356.261C1299.83 356.261 1300.78 355.994 1301.63 355.46C1302.49 354.926 1303.17 354.139 1303.67 353.099C1304.18 352.06 1304.43 350.784 1304.43 349.273ZM1310.03 340.545H1312.55L1318.48 355.034H1318.69L1324.62 340.545H1327.14V358H1325.16V344.739H1324.99L1319.54 358H1317.63L1312.18 344.739H1312V358H1310.03V340.545ZM1343.28 358.239C1342.28 358.239 1341.38 358.04 1340.58 357.642C1339.77 357.244 1339.13 356.699 1338.65 356.006C1338.17 355.312 1337.9 354.523 1337.86 353.636H1339.9C1339.98 354.426 1340.34 355.08 1340.98 355.597C1341.62 356.108 1342.38 356.364 1343.28 356.364C1343.99 356.364 1344.63 356.196 1345.19 355.861C1345.75 355.526 1346.19 355.065 1346.51 354.48C1346.83 353.889 1346.99 353.222 1346.99 352.477C1346.99 351.716 1346.83 351.037 1346.49 350.44C1346.16 349.838 1345.71 349.364 1345.13 349.017C1344.55 348.67 1343.88 348.494 1343.14 348.489C1342.61 348.483 1342.06 348.565 1341.5 348.736C1340.93 348.901 1340.47 349.114 1340.11 349.375L1338.13 349.136L1339.19 340.545H1348.25V342.42H1340.96L1340.35 347.568H1340.45C1340.81 347.284 1341.25 347.048 1341.79 346.861C1342.33 346.673 1342.9 346.58 1343.48 346.58C1344.55 346.58 1345.5 346.835 1346.34 347.347C1347.18 347.852 1347.84 348.545 1348.31 349.426C1348.8 350.307 1349.04 351.312 1349.04 352.443C1349.04 353.557 1348.79 354.551 1348.29 355.426C1347.79 356.295 1347.11 356.983 1346.24 357.489C1345.37 357.989 1344.38 358.239 1343.28 358.239Z" fill="black"/>
<line x1="958" y1="254" x2="1177" y2="254" stroke="black" stroke-width="4"/>
<line x1="1175" y1="504" x2="1175" y2="256" stroke="black" stroke-width="4"/>
<line x1="960" y1="256" x2="960" y2="377" stroke="black" stroke-width="4"/>
<line x1="960" y1="449" x2="960" y2="506" stroke="black" stroke-width="4"/>
<path d="M1031.11 385V367.545H1037.01C1038.38 367.545 1039.49 367.778 1040.37 368.244C1041.24 368.705 1041.89 369.338 1042.31 370.145C1042.73 370.952 1042.94 371.869 1042.94 372.898C1042.94 373.926 1042.73 374.838 1042.31 375.634C1041.89 376.429 1041.25 377.054 1040.38 377.509C1039.51 377.957 1038.4 378.182 1037.05 378.182H1032.27V376.273H1036.98C1037.91 376.273 1038.66 376.136 1039.23 375.864C1039.8 375.591 1040.22 375.205 1040.47 374.705C1040.73 374.199 1040.86 373.597 1040.86 372.898C1040.86 372.199 1040.73 371.588 1040.47 371.065C1040.21 370.543 1039.79 370.139 1039.22 369.855C1038.64 369.565 1037.89 369.42 1036.94 369.42H1033.23V385H1031.11ZM1039.33 377.159L1043.62 385H1041.17L1036.94 377.159H1039.33ZM1061.19 376.273C1061.19 378.114 1060.86 379.705 1060.2 381.045C1059.53 382.386 1058.62 383.42 1057.46 384.148C1056.3 384.875 1054.98 385.239 1053.49 385.239C1052 385.239 1050.68 384.875 1049.52 384.148C1048.36 383.42 1047.45 382.386 1046.78 381.045C1046.12 379.705 1045.78 378.114 1045.78 376.273C1045.78 374.432 1046.12 372.841 1046.78 371.5C1047.45 370.159 1048.36 369.125 1049.52 368.398C1050.68 367.67 1052 367.307 1053.49 367.307C1054.98 367.307 1056.3 367.67 1057.46 368.398C1058.62 369.125 1059.53 370.159 1060.2 371.5C1060.86 372.841 1061.19 374.432 1061.19 376.273ZM1059.15 376.273C1059.15 374.761 1058.89 373.486 1058.39 372.446C1057.89 371.406 1057.21 370.619 1056.35 370.085C1055.5 369.551 1054.54 369.284 1053.49 369.284C1052.43 369.284 1051.47 369.551 1050.62 370.085C1049.76 370.619 1049.08 371.406 1048.58 372.446C1048.08 373.486 1047.83 374.761 1047.83 376.273C1047.83 377.784 1048.08 379.06 1048.58 380.099C1049.08 381.139 1049.76 381.926 1050.62 382.46C1051.47 382.994 1052.43 383.261 1053.49 383.261C1054.54 383.261 1055.5 382.994 1056.35 382.46C1057.21 381.926 1057.89 381.139 1058.39 380.099C1058.89 379.06 1059.15 377.784 1059.15 376.273ZM1079.47 376.273C1079.47 378.114 1079.14 379.705 1078.48 381.045C1077.81 382.386 1076.9 383.42 1075.74 384.148C1074.58 384.875 1073.26 385.239 1071.77 385.239C1070.28 385.239 1068.96 384.875 1067.8 384.148C1066.64 383.42 1065.73 382.386 1065.06 381.045C1064.4 379.705 1064.06 378.114 1064.06 376.273C1064.06 374.432 1064.4 372.841 1065.06 371.5C1065.73 370.159 1066.64 369.125 1067.8 368.398C1068.96 367.67 1070.28 367.307 1071.77 367.307C1073.26 367.307 1074.58 367.67 1075.74 368.398C1076.9 369.125 1077.81 370.159 1078.48 371.5C1079.14 372.841 1079.47 374.432 1079.47 376.273ZM1077.43 376.273C1077.43 374.761 1077.18 373.486 1076.67 372.446C1076.17 371.406 1075.49 370.619 1074.63 370.085C1073.78 369.551 1072.83 369.284 1071.77 369.284C1070.71 369.284 1069.75 369.551 1068.9 370.085C1068.04 370.619 1067.37 371.406 1066.86 372.446C1066.36 373.486 1066.11 374.761 1066.11 376.273C1066.11 377.784 1066.36 379.06 1066.86 380.099C1067.37 381.139 1068.04 381.926 1068.9 382.46C1069.75 382.994 1070.71 383.261 1071.77 383.261C1072.83 383.261 1073.78 382.994 1074.63 382.46C1075.49 381.926 1076.17 381.139 1076.67 380.099C1077.18 379.06 1077.43 377.784 1077.43 376.273ZM1083.03 367.545H1085.55L1091.48 382.034H1091.69L1097.62 367.545H1100.14V385H1098.16V371.739H1097.99L1092.54 385H1090.63L1085.18 371.739H1085V385H1083.03V367.545ZM1110.41 381.42V379.682L1118.08 367.545H1119.35V370.239H1118.49L1112.7 379.409V379.545H1123.03V381.42H1110.41ZM1118.63 385V380.892V380.082V367.545H1120.64V385H1118.63Z" fill="black"/>
<line x1="958" y1="758" x2="1177" y2="758" stroke="black" stroke-width="4"/>
<line x1="960" y1="504" x2="960" y2="625" stroke="black" stroke-width="4"/>
<line x1="1175" y1="504" x2="1175" y2="760" stroke="black" stroke-width="4"/>
<line x1="960" y1="703" x2="960" y2="760" stroke="black" stroke-width="4"/>
<line x1="958" y1="504" x2="1177" y2="504" stroke="black" stroke-width="4"/>
<path d="M1021.11 638V620.545H1027.01C1028.38 620.545 1029.49 620.778 1030.37 621.244C1031.24 621.705 1031.89 622.338 1032.31 623.145C1032.73 623.952 1032.94 624.869 1032.94 625.898C1032.94 626.926 1032.73 627.838 1032.31 628.634C1031.89 629.429 1031.25 630.054 1030.38 630.509C1029.51 630.957 1028.4 631.182 1027.05 631.182H1022.27V629.273H1026.98C1027.91 629.273 1028.66 629.136 1029.23 628.864C1029.8 628.591 1030.22 628.205 1030.47 627.705C1030.73 627.199 1030.86 626.597 1030.86 625.898C1030.86 625.199 1030.73 624.588 1030.47 624.065C1030.21 623.543 1029.79 623.139 1029.22 622.855C1028.64 622.565 1027.89 622.42 1026.94 622.42H1023.23V638H1021.11ZM1029.33 630.159L1033.62 638H1031.17L1026.94 630.159H1029.33ZM1051.19 629.273C1051.19 631.114 1050.86 632.705 1050.2 634.045C1049.53 635.386 1048.62 636.42 1047.46 637.148C1046.3 637.875 1044.98 638.239 1043.49 638.239C1042 638.239 1040.68 637.875 1039.52 637.148C1038.36 636.42 1037.45 635.386 1036.78 634.045C1036.12 632.705 1035.78 631.114 1035.78 629.273C1035.78 627.432 1036.12 625.841 1036.78 624.5C1037.45 623.159 1038.36 622.125 1039.52 621.398C1040.68 620.67 1042 620.307 1043.49 620.307C1044.98 620.307 1046.3 620.67 1047.46 621.398C1048.62 622.125 1049.53 623.159 1050.2 624.5C1050.86 625.841 1051.19 627.432 1051.19 629.273ZM1049.15 629.273C1049.15 627.761 1048.89 626.486 1048.39 625.446C1047.89 624.406 1047.21 623.619 1046.35 623.085C1045.5 622.551 1044.54 622.284 1043.49 622.284C1042.43 622.284 1041.47 622.551 1040.62 623.085C1039.76 623.619 1039.08 624.406 1038.58 625.446C1038.08 626.486 1037.83 627.761 1037.83 629.273C1037.83 630.784 1038.08 632.06 1038.58 633.099C1039.08 634.139 1039.76 634.926 1040.62 635.46C1041.47 635.994 1042.43 636.261 1043.49 636.261C1044.54 636.261 1045.5 635.994 1046.35 635.46C1047.21 634.926 1047.89 634.139 1048.39 633.099C1048.89 632.06 1049.15 630.784 1049.15 629.273ZM1069.47 629.273C1069.47 631.114 1069.14 632.705 1068.48 634.045C1067.81 635.386 1066.9 636.42 1065.74 637.148C1064.58 637.875 1063.26 638.239 1061.77 638.239C1060.28 638.239 1058.96 637.875 1057.8 637.148C1056.64 636.42 1055.73 635.386 1055.06 634.045C1054.4 632.705 1054.06 631.114 1054.06 629.273C1054.06 627.432 1054.4 625.841 1055.06 624.5C1055.73 623.159 1056.64 622.125 1057.8 621.398C1058.96 620.67 1060.28 620.307 1061.77 620.307C1063.26 620.307 1064.58 620.67 1065.74 621.398C1066.9 622.125 1067.81 623.159 1068.48 624.5C1069.14 625.841 1069.47 627.432 1069.47 629.273ZM1067.43 629.273C1067.43 627.761 1067.18 626.486 1066.67 625.446C1066.17 624.406 1065.49 623.619 1064.63 623.085C1063.78 622.551 1062.83 622.284 1061.77 622.284C1060.71 622.284 1059.75 622.551 1058.9 623.085C1058.04 623.619 1057.37 624.406 1056.86 625.446C1056.36 626.486 1056.11 627.761 1056.11 629.273C1056.11 630.784 1056.36 632.06 1056.86 633.099C1057.37 634.139 1058.04 634.926 1058.9 635.46C1059.75 635.994 1060.71 636.261 1061.77 636.261C1062.83 636.261 1063.78 635.994 1064.63 635.46C1065.49 634.926 1066.17 634.139 1066.67 633.099C1067.18 632.06 1067.43 630.784 1067.43 629.273ZM1073.03 620.545H1075.55L1081.48 635.034H1081.69L1087.62 620.545H1090.14V638H1088.16V624.739H1087.99L1082.54 638H1080.63L1075.18 624.739H1075V638H1073.03V620.545ZM1106.72 638.239C1105.6 638.239 1104.59 638.045 1103.71 637.659C1102.84 637.273 1102.14 636.736 1101.62 636.048C1101.11 635.355 1100.83 634.551 1100.79 633.636H1102.94C1102.98 634.199 1103.17 634.685 1103.52 635.094C1103.86 635.497 1104.3 635.81 1104.85 636.031C1105.4 636.253 1106.02 636.364 1106.69 636.364C1107.44 636.364 1108.1 636.233 1108.68 635.972C1109.26 635.71 1109.71 635.347 1110.04 634.881C1110.37 634.415 1110.54 633.875 1110.54 633.261C1110.54 632.619 1110.38 632.054 1110.06 631.565C1109.74 631.071 1109.28 630.685 1108.66 630.406C1108.05 630.128 1107.3 629.989 1106.41 629.989H1105.02V628.114H1106.41C1107.11 628.114 1107.71 627.989 1108.24 627.739C1108.77 627.489 1109.18 627.136 1109.47 626.682C1109.77 626.227 1109.92 625.693 1109.92 625.08C1109.92 624.489 1109.79 623.974 1109.53 623.537C1109.27 623.099 1108.9 622.759 1108.42 622.514C1107.95 622.27 1107.4 622.148 1106.75 622.148C1106.15 622.148 1105.58 622.259 1105.05 622.48C1104.52 622.696 1104.09 623.011 1103.75 623.426C1103.42 623.835 1103.24 624.33 1103.21 624.909H1101.16C1101.2 623.994 1101.47 623.193 1101.99 622.506C1102.51 621.812 1103.18 621.273 1104.02 620.886C1104.86 620.5 1105.78 620.307 1106.79 620.307C1107.87 620.307 1108.79 620.526 1109.57 620.963C1110.34 621.395 1110.93 621.966 1111.35 622.676C1111.76 623.386 1111.97 624.153 1111.97 624.977C1111.97 625.96 1111.71 626.798 1111.19 627.491C1110.68 628.185 1109.99 628.665 1109.11 628.932V629.068C1110.21 629.25 1111.07 629.719 1111.69 630.474C1112.31 631.224 1112.62 632.153 1112.62 633.261C1112.62 634.21 1112.36 635.062 1111.84 635.818C1111.33 636.568 1110.63 637.159 1109.75 637.591C1108.86 638.023 1107.85 638.239 1106.72 638.239Z" fill="black"/>
<line x1="1184" y1="886" x2="1184" y2="1017" stroke="black" stroke-width="4"/>
<line x1="1182" y1="884" x2="1224" y2="884" stroke="black" stroke-width="4"/>
<line x1="1284" y1="884" x2="1425" y2="884" stroke="black" stroke-width="4"/>
<line x1="1423" y1="1010" x2="1423" y2="886" stroke="black" stroke-width="4"/>
<path d="M1261.11 956V938.545H1267.01C1268.38 938.545 1269.49 938.778 1270.37 939.244C1271.24 939.705 1271.89 940.338 1272.31 941.145C1272.73 941.952 1272.94 942.869 1272.94 943.898C1272.94 944.926 1272.73 945.838 1272.31 946.634C1271.89 947.429 1271.25 948.054 1270.38 948.509C1269.51 948.957 1268.4 949.182 1267.05 949.182H1262.27V947.273H1266.98C1267.91 947.273 1268.66 947.136 1269.23 946.864C1269.8 946.591 1270.22 946.205 1270.47 945.705C1270.73 945.199 1270.86 944.597 1270.86 943.898C1270.86 943.199 1270.73 942.588 1270.47 942.065C1270.21 941.543 1269.79 941.139 1269.22 940.855C1268.64 940.565 1267.89 940.42 1266.94 940.42H1263.23V956H1261.11ZM1269.33 948.159L1273.62 956H1271.17L1266.94 948.159H1269.33ZM1291.19 947.273C1291.19 949.114 1290.86 950.705 1290.2 952.045C1289.53 953.386 1288.62 954.42 1287.46 955.148C1286.3 955.875 1284.98 956.239 1283.49 956.239C1282 956.239 1280.68 955.875 1279.52 955.148C1278.36 954.42 1277.45 953.386 1276.78 952.045C1276.12 950.705 1275.78 949.114 1275.78 947.273C1275.78 945.432 1276.12 943.841 1276.78 942.5C1277.45 941.159 1278.36 940.125 1279.52 939.398C1280.68 938.67 1282 938.307 1283.49 938.307C1284.98 938.307 1286.3 938.67 1287.46 939.398C1288.62 940.125 1289.53 941.159 1290.2 942.5C1290.86 943.841 1291.19 945.432 1291.19 947.273ZM1289.15 947.273C1289.15 945.761 1288.89 944.486 1288.39 943.446C1287.89 942.406 1287.21 941.619 1286.35 941.085C1285.5 940.551 1284.54 940.284 1283.49 940.284C1282.43 940.284 1281.47 940.551 1280.62 941.085C1279.76 941.619 1279.08 942.406 1278.58 943.446C1278.08 944.486 1277.83 945.761 1277.83 947.273C1277.83 948.784 1278.08 950.06 1278.58 951.099C1279.08 952.139 1279.76 952.926 1280.62 953.46C1281.47 953.994 1282.43 954.261 1283.49 954.261C1284.54 954.261 1285.5 953.994 1286.35 953.46C1287.21 952.926 1287.89 952.139 1288.39 951.099C1288.89 950.06 1289.15 948.784 1289.15 947.273ZM1309.47 947.273C1309.47 949.114 1309.14 950.705 1308.48 952.045C1307.81 953.386 1306.9 954.42 1305.74 955.148C1304.58 955.875 1303.26 956.239 1301.77 956.239C1300.28 956.239 1298.96 955.875 1297.8 955.148C1296.64 954.42 1295.73 953.386 1295.06 952.045C1294.4 950.705 1294.06 949.114 1294.06 947.273C1294.06 945.432 1294.4 943.841 1295.06 942.5C1295.73 941.159 1296.64 940.125 1297.8 939.398C1298.96 938.67 1300.28 938.307 1301.77 938.307C1303.26 938.307 1304.58 938.67 1305.74 939.398C1306.9 940.125 1307.81 941.159 1308.48 942.5C1309.14 943.841 1309.47 945.432 1309.47 947.273ZM1307.43 947.273C1307.43 945.761 1307.18 944.486 1306.67 943.446C1306.17 942.406 1305.49 941.619 1304.63 941.085C1303.78 940.551 1302.83 940.284 1301.77 940.284C1300.71 940.284 1299.75 940.551 1298.9 941.085C1298.04 941.619 1297.37 942.406 1296.86 943.446C1296.36 944.486 1296.11 945.761 1296.11 947.273C1296.11 948.784 1296.36 950.06 1296.86 951.099C1297.37 952.139 1298.04 952.926 1298.9 953.46C1299.75 953.994 1300.71 954.261 1301.77 954.261C1302.83 954.261 1303.78 953.994 1304.63 953.46C1305.49 952.926 1306.17 952.139 1306.67 951.099C1307.18 950.06 1307.43 948.784 1307.43 947.273ZM1313.03 938.545H1315.55L1321.48 953.034H1321.69L1327.62 938.545H1330.14V956H1328.16V942.739H1327.99L1322.54 956H1320.63L1315.18 942.739H1315V956H1313.03V938.545ZM1340.82 956V954.466L1346.58 948.159C1347.26 947.42 1347.82 946.778 1348.25 946.233C1348.69 945.682 1349.02 945.165 1349.23 944.682C1349.44 944.193 1349.55 943.682 1349.55 943.148C1349.55 942.534 1349.4 942.003 1349.11 941.554C1348.82 941.105 1348.42 940.759 1347.91 940.514C1347.41 940.27 1346.84 940.148 1346.21 940.148C1345.54 940.148 1344.95 940.287 1344.45 940.565C1343.96 940.838 1343.58 941.222 1343.3 941.716C1343.04 942.21 1342.9 942.79 1342.9 943.455H1340.89C1340.89 942.432 1341.13 941.534 1341.6 940.761C1342.07 939.989 1342.71 939.386 1343.52 938.955C1344.34 938.523 1345.26 938.307 1346.28 938.307C1347.3 938.307 1348.21 938.523 1349 938.955C1349.79 939.386 1350.4 939.969 1350.85 940.702C1351.3 941.435 1351.53 942.25 1351.53 943.148C1351.53 943.79 1351.41 944.418 1351.18 945.031C1350.95 945.639 1350.55 946.318 1349.98 947.068C1349.42 947.812 1348.64 948.722 1347.64 949.795L1343.72 953.989V954.125H1351.83V956H1340.82Z" fill="black"/>
<line x1="934" y1="886" x2="934" y2="1017" stroke="black" stroke-width="4"/>
<line x1="932" y1="884" x2="978" y2="884" stroke="black" stroke-width="4"/>
<line x1="1029" y1="884" x2="1182" y2="884" stroke="black" stroke-width="4"/>
<line x1="1180" y1="1010" x2="1180" y2="886" stroke="black" stroke-width="4"/>
<path d="M1013.11 956V938.545H1019.01C1020.38 938.545 1021.49 938.778 1022.37 939.244C1023.24 939.705 1023.89 940.338 1024.31 941.145C1024.73 941.952 1024.94 942.869 1024.94 943.898C1024.94 944.926 1024.73 945.838 1024.31 946.634C1023.89 947.429 1023.25 948.054 1022.38 948.509C1021.51 948.957 1020.4 949.182 1019.05 949.182H1014.27V947.273H1018.98C1019.91 947.273 1020.66 947.136 1021.23 946.864C1021.8 946.591 1022.22 946.205 1022.47 945.705C1022.73 945.199 1022.86 944.597 1022.86 943.898C1022.86 943.199 1022.73 942.588 1022.47 942.065C1022.21 941.543 1021.79 941.139 1021.22 940.855C1020.64 940.565 1019.89 940.42 1018.94 940.42H1015.23V956H1013.11ZM1021.33 948.159L1025.62 956H1023.17L1018.94 948.159H1021.33ZM1043.19 947.273C1043.19 949.114 1042.86 950.705 1042.2 952.045C1041.53 953.386 1040.62 954.42 1039.46 955.148C1038.3 955.875 1036.98 956.239 1035.49 956.239C1034 956.239 1032.68 955.875 1031.52 955.148C1030.36 954.42 1029.45 953.386 1028.78 952.045C1028.12 950.705 1027.78 949.114 1027.78 947.273C1027.78 945.432 1028.12 943.841 1028.78 942.5C1029.45 941.159 1030.36 940.125 1031.52 939.398C1032.68 938.67 1034 938.307 1035.49 938.307C1036.98 938.307 1038.3 938.67 1039.46 939.398C1040.62 940.125 1041.53 941.159 1042.2 942.5C1042.86 943.841 1043.19 945.432 1043.19 947.273ZM1041.15 947.273C1041.15 945.761 1040.89 944.486 1040.39 943.446C1039.89 942.406 1039.21 941.619 1038.35 941.085C1037.5 940.551 1036.54 940.284 1035.49 940.284C1034.43 940.284 1033.47 940.551 1032.62 941.085C1031.76 941.619 1031.08 942.406 1030.58 943.446C1030.08 944.486 1029.83 945.761 1029.83 947.273C1029.83 948.784 1030.08 950.06 1030.58 951.099C1031.08 952.139 1031.76 952.926 1032.62 953.46C1033.47 953.994 1034.43 954.261 1035.49 954.261C1036.54 954.261 1037.5 953.994 1038.35 953.46C1039.21 952.926 1039.89 952.139 1040.39 951.099C1040.89 950.06 1041.15 948.784 1041.15 947.273ZM1061.47 947.273C1061.47 949.114 1061.14 950.705 1060.48 952.045C1059.81 953.386 1058.9 954.42 1057.74 955.148C1056.58 955.875 1055.26 956.239 1053.77 956.239C1052.28 956.239 1050.96 955.875 1049.8 955.148C1048.64 954.42 1047.73 953.386 1047.06 952.045C1046.4 950.705 1046.06 949.114 1046.06 947.273C1046.06 945.432 1046.4 943.841 1047.06 942.5C1047.73 941.159 1048.64 940.125 1049.8 939.398C1050.96 938.67 1052.28 938.307 1053.77 938.307C1055.26 938.307 1056.58 938.67 1057.74 939.398C1058.9 940.125 1059.81 941.159 1060.48 942.5C1061.14 943.841 1061.47 945.432 1061.47 947.273ZM1059.43 947.273C1059.43 945.761 1059.18 944.486 1058.67 943.446C1058.17 942.406 1057.49 941.619 1056.63 941.085C1055.78 940.551 1054.83 940.284 1053.77 940.284C1052.71 940.284 1051.75 940.551 1050.9 941.085C1050.04 941.619 1049.37 942.406 1048.86 943.446C1048.36 944.486 1048.11 945.761 1048.11 947.273C1048.11 948.784 1048.36 950.06 1048.86 951.099C1049.37 952.139 1050.04 952.926 1050.9 953.46C1051.75 953.994 1052.71 954.261 1053.77 954.261C1054.83 954.261 1055.78 953.994 1056.63 953.46C1057.49 952.926 1058.17 952.139 1058.67 951.099C1059.18 950.06 1059.43 948.784 1059.43 947.273ZM1065.03 938.545H1067.55L1073.48 953.034H1073.69L1079.62 938.545H1082.14V956H1080.16V942.739H1079.99L1074.54 956H1072.63L1067.18 942.739H1067V956H1065.03V938.545ZM1098.96 938.545V956H1096.85V940.761H1096.74L1092.48 943.591V941.443L1096.85 938.545H1098.96Z" fill="black"/>
<line x1="17" y1="15" x2="17" y2="141" stroke="black" stroke-width="4"/>
<line x1="283" y1="143" x2="15" y2="143" stroke="black" stroke-width="4"/>
<line x1="433" y1="143" x2="370" y2="143" stroke="black" stroke-width="4"/>
<line x1="15" y1="17" x2="433" y2="17" stroke="black" stroke-width="4"/>
<line x1="431" y1="141" x2="431" y2="19" stroke="black" stroke-width="4"/>
<path d="M133.114 88V70.5455H143.58V72.4205H135.227V78.3182H142.795V80.1932H135.227V88H133.114ZM145.736 88H143.52L149.929 70.5455H152.111L158.52 88H156.304L151.088 73.3068H150.952L145.736 88ZM146.554 81.1818H155.486V83.0568H146.554V81.1818ZM174.464 76H172.35C172.225 75.392 172.006 74.858 171.694 74.3977C171.387 73.9375 171.012 73.5511 170.569 73.2386C170.131 72.9205 169.646 72.6818 169.112 72.5227C168.577 72.3636 168.021 72.2841 167.441 72.2841C166.384 72.2841 165.427 72.5511 164.569 73.0852C163.717 73.6193 163.038 74.4062 162.532 75.446C162.032 76.4858 161.782 77.7614 161.782 79.2727C161.782 80.7841 162.032 82.0597 162.532 83.0994C163.038 84.1392 163.717 84.9261 164.569 85.4602C165.427 85.9943 166.384 86.2614 167.441 86.2614C168.021 86.2614 168.577 86.1818 169.112 86.0227C169.646 85.8636 170.131 85.6278 170.569 85.3153C171.012 84.9972 171.387 84.608 171.694 84.1477C172.006 83.6818 172.225 83.1477 172.35 82.5455H174.464C174.305 83.4375 174.015 84.2358 173.594 84.9403C173.174 85.6449 172.651 86.2443 172.026 86.7386C171.401 87.2273 170.7 87.5994 169.921 87.8551C169.148 88.1108 168.322 88.2386 167.441 88.2386C165.952 88.2386 164.629 87.875 163.469 87.1477C162.31 86.4205 161.398 85.3864 160.734 84.0455C160.069 82.7045 159.737 81.1136 159.737 79.2727C159.737 77.4318 160.069 75.8409 160.734 74.5C161.398 73.1591 162.31 72.125 163.469 71.3977C164.629 70.6705 165.952 70.3068 167.441 70.3068C168.322 70.3068 169.148 70.4347 169.921 70.6903C170.7 70.946 171.401 71.321 172.026 71.8153C172.651 72.304 173.174 72.9006 173.594 73.6051C174.015 74.304 174.305 75.1023 174.464 76ZM189.334 70.5455H191.447V82.1023C191.447 83.2955 191.166 84.3608 190.604 85.2983C190.047 86.2301 189.26 86.9659 188.243 87.5057C187.226 88.0398 186.033 88.3068 184.663 88.3068C183.294 88.3068 182.101 88.0398 181.084 87.5057C180.067 86.9659 179.277 86.2301 178.714 85.2983C178.158 84.3608 177.879 83.2955 177.879 82.1023V70.5455H179.993V81.9318C179.993 82.7841 180.18 83.5426 180.555 84.2074C180.93 84.8665 181.464 85.3864 182.158 85.767C182.857 86.142 183.692 86.3295 184.663 86.3295C185.635 86.3295 186.47 86.142 187.169 85.767C187.868 85.3864 188.402 84.8665 188.771 84.2074C189.146 83.5426 189.334 82.7841 189.334 81.9318V70.5455ZM195.668 88V70.5455H197.782V86.125H205.896V88H195.668ZM205.893 72.4205V70.5455H218.984V72.4205H213.496V88H211.382V72.4205H205.893ZM220.746 70.5455H223.167L228.008 78.6932H228.212L233.053 70.5455H235.474L229.167 80.8068V88H227.053V80.8068L220.746 70.5455ZM244.957 88V70.5455H250.855C252.219 70.5455 253.338 70.7784 254.213 71.2443C255.088 71.7045 255.736 72.3381 256.156 73.1449C256.577 73.9517 256.787 74.8693 256.787 75.8977C256.787 76.9261 256.577 77.8381 256.156 78.6335C255.736 79.429 255.091 80.054 254.222 80.5085C253.352 80.9574 252.241 81.1818 250.889 81.1818H246.116V79.2727H250.821C251.753 79.2727 252.503 79.1364 253.071 78.8636C253.645 78.5909 254.06 78.2045 254.315 77.7045C254.577 77.1989 254.707 76.5966 254.707 75.8977C254.707 75.1989 254.577 74.5881 254.315 74.0653C254.054 73.5426 253.636 73.1392 253.062 72.8551C252.489 72.5653 251.73 72.4205 250.787 72.4205H247.071V88H244.957ZM253.173 80.1591L257.469 88H255.014L250.787 80.1591H253.173ZM275.036 79.2727C275.036 81.1136 274.704 82.7045 274.039 84.0455C273.374 85.3864 272.462 86.4205 271.303 87.1477C270.144 87.875 268.82 88.2386 267.332 88.2386C265.843 88.2386 264.519 87.875 263.36 87.1477C262.201 86.4205 261.289 85.3864 260.624 84.0455C259.96 82.7045 259.627 81.1136 259.627 79.2727C259.627 77.4318 259.96 75.8409 260.624 74.5C261.289 73.1591 262.201 72.125 263.36 71.3977C264.519 70.6705 265.843 70.3068 267.332 70.3068C268.82 70.3068 270.144 70.6705 271.303 71.3977C272.462 72.125 273.374 73.1591 274.039 74.5C274.704 75.8409 275.036 77.4318 275.036 79.2727ZM272.991 79.2727C272.991 77.7614 272.738 76.4858 272.232 75.446C271.732 74.4062 271.053 73.6193 270.195 73.0852C269.343 72.5511 268.388 72.2841 267.332 72.2841C266.275 72.2841 265.317 72.5511 264.46 73.0852C263.607 73.6193 262.928 74.4062 262.423 75.446C261.923 76.4858 261.673 77.7614 261.673 79.2727C261.673 80.7841 261.923 82.0597 262.423 83.0994C262.928 84.1392 263.607 84.9261 264.46 85.4602C265.317 85.9943 266.275 86.2614 267.332 86.2614C268.388 86.2614 269.343 85.9943 270.195 85.4602C271.053 84.9261 271.732 84.1392 272.232 83.0994C272.738 82.0597 272.991 80.7841 272.991 79.2727ZM293.317 79.2727C293.317 81.1136 292.985 82.7045 292.32 84.0455C291.656 85.3864 290.744 86.4205 289.585 87.1477C288.425 87.875 287.102 88.2386 285.613 88.2386C284.124 88.2386 282.8 87.875 281.641 87.1477C280.482 86.4205 279.57 85.3864 278.906 84.0455C278.241 82.7045 277.908 81.1136 277.908 79.2727C277.908 77.4318 278.241 75.8409 278.906 74.5C279.57 73.1591 280.482 72.125 281.641 71.3977C282.8 70.6705 284.124 70.3068 285.613 70.3068C287.102 70.3068 288.425 70.6705 289.585 71.3977C290.744 72.125 291.656 73.1591 292.32 74.5C292.985 75.8409 293.317 77.4318 293.317 79.2727ZM291.272 79.2727C291.272 77.7614 291.019 76.4858 290.513 75.446C290.013 74.4062 289.335 73.6193 288.477 73.0852C287.624 72.5511 286.67 72.2841 285.613 72.2841C284.556 72.2841 283.599 72.5511 282.741 73.0852C281.888 73.6193 281.21 74.4062 280.704 75.446C280.204 76.4858 279.954 77.7614 279.954 79.2727C279.954 80.7841 280.204 82.0597 280.704 83.0994C281.21 84.1392 281.888 84.9261 282.741 85.4602C283.599 85.9943 284.556 86.2614 285.613 86.2614C286.67 86.2614 287.624 85.9943 288.477 85.4602C289.335 84.9261 290.013 84.1392 290.513 83.0994C291.019 82.0597 291.272 80.7841 291.272 79.2727ZM296.871 70.5455H299.394L305.326 85.0341H305.531L311.462 70.5455H313.985V88H312.008V74.7386H311.837L306.383 88H304.474L299.019 74.7386H298.849V88H296.871V70.5455Z" fill="black"/>
</g>
<defs>
<clipPath id="clip0_7_3">
<rect width="1440" height="1024" fill="white"/>
</clipPath>
</defs>
</svg>
